Coordinates
version=1
nRows=14
nColumns=36
inDegrees=yes

Units are S.I. units (second, meters, Newtons, ...)
If the header above contains a line with 'inDegrees', this indicates whether rotational values are in degrees (yes) or radians (no).

endheader
time	pelvis_tilt	pelvis_list	pelvis_rotation	pelvis_tx	pelvis_ty	pelvis_tz	hip_flexion_r	hip_adduction_r	hip_rotation_r	knee_angle_r	knee_angle_r_beta	ankle_angle_r	subtalar_angle_r	mtp_angle_r	hip_flexion_l	hip_adduction_l	hip_rotation_l	knee_angle_l	knee_angle_l_beta	ankle_angle_l	subtalar_angle_l	mtp_angle_l	lumbar_extension	lumbar_bending	lumbar_rotation	arm_flex_r	arm_add_r	arm_rot_r	elbow_flex_r	pro_sup_r	arm_flex_l	arm_add_l	arm_rot_l	elbow_flex_l	pro_sup_l
      0.00000000	      4.37289252	     -0.40148106	     -8.16521598	      0.48947752	      0.94847237	      0.71613118	     -3.91801783	      3.19313668	      4.49239433	     10.08293766	      0.17598046	      8.30092698	    -10.38029012	     -7.12896062	     14.36600351	     -0.65936561	     -3.09922076	     51.85800156	      0.90509287	     10.80122590	     -5.01387519	     -7.12896062	    -13.02653715	      1.23254877	      5.89443243	     10.06172353	    -13.78845218	     -0.67270337	     29.69244835	     88.14393554	      3.69946667	     -7.53544193	      0.49076149	     19.54259523	     85.81509129
      0.01666670	      4.28528378	     -0.46242593	     -7.03452697	      0.48983545	      0.94468838	      0.71619317	     -5.21568610	      3.42507315	      4.35850184	      9.89890796	      0.17276854	     10.81679181	     -7.79475486	     -7.26384440	     16.79569629	     -0.43002497	     -2.05426295	     51.31303218	      0.89558136	     13.47870696	     -4.32551024	     -7.26384440	    -13.25153542	      1.38795987	      5.74057142	      9.63248303	    -13.71520433	     -3.09084205	     33.04802056	     89.13317300	      3.63054670	     -7.93031651	      2.80944817	     20.26572558	     89.74799031
      0.03333330	      4.35990275	     -0.31654306	     -6.70646107	      0.48835005	      0.94105326	      0.71646597	     -6.41045377	      3.15482324	      4.12823108	     10.12518409	      0.17671780	     12.38391643	     -7.46582873	     -7.29780994	     18.98629790	     -0.29981022	     -1.90833828	     50.49207271	      0.88125291	     15.55699501	     -3.32709427	     -7.29780994	    -13.83296133	      1.29591085	      5.60393929	     10.98066127	    -14.27077743	     -1.54957036	     34.94204281	     88.26229857	      3.48745496	     -8.36717631	      4.65935096	     20.07118992	     89.43340312
      0.05000000	      3.91978744	      0.06763956	     -6.31887834	      0.48716720	      0.93623552	      0.71667116	     -6.93073662	      2.72927877	      3.37200157	     10.43311703	      0.18209224	     14.65838913	     -6.89474990	     -7.30898878	     21.51533784	     -0.25706336	     -2.43715386	     48.77224552	      0.85123627	     16.27575765	     -3.31518582	     -7.30898878	    -13.84347929	      0.95962925	      5.20001653	     12.41101633	    -14.43729423	     -1.34163580	     37.14703412	     88.19276086	      3.12138402	     -8.75681330	      4.98422550	     19.94114231	     89.56477893
      0.06666670	      3.85472823	      0.41788508	     -6.37531213	      0.48492562	      0.93410188	      0.71740716	     -8.00700631	      2.31410453	      3.00486828	     10.37579853	      0.18109185	     16.89043954	     -6.11339619	     -7.31097072	     23.34926902	     -0.46516908	     -3.23859333	     46.60475538	      0.81340643	     16.31625579	     -3.81629477	     -7.31097072	    -14.17786708	      0.45195534	      5.33296915	     13.97056115	    -14.86244188	     -0.42953784	     39.12628813	     87.97822408	      3.19424441	     -9.05326449	      5.51180740	     19.36375983	     89.72767655
      0.08333330	      4.07208965	      0.61433965	     -6.47622768	      0.48131047	      0.93308830	      0.71771665	     -9.68332747	      2.06352886	      3.03864159	      9.72690454	      0.16976651	     18.23149513	     -5.74074947	     -7.30895201	     24.49904291	     -0.88353308	     -3.88948150	     43.82858100	      0.76495304	     15.79858400	     -4.28483601	     -7.30895201	    -14.84021232	      0.06858698	      5.46478262	     15.51084335	    -15.18670733	      0.26882776	     40.88763504	     88.01733367	      3.53931461	     -9.29544275	      6.07486003	     18.71624911	     90.18838946
      0.10000000	      4.19119528	      0.68107778	     -6.75880711	      0.47766571	      0.92875912	      0.71688627	    -11.44561071	      1.90568374	      3.26642088	      8.72083078	      0.15220721	     19.05174502	     -5.11780614	     -7.30908526	     25.46057563	     -1.45643846	     -4.57010722	     40.65720834	      0.70960215	     15.12185491	     -4.60165592	     -7.30908526	    -15.38591471	     -0.18906116	      5.72840078	     16.80178035	    -15.55714387	      0.80555069	     42.49919461	     88.28956415	      3.91079253	     -9.42026039	      6.47227438	     18.23241718	     90.86688107
      0.11666670	      4.12821278	      0.68554247	     -7.04389555	      0.47531243	      0.92138401	      0.71560039	    -13.03562814	      1.80101925	      3.54928049	      7.78033446	      0.13579245	     19.50909199	     -4.56550821	     -7.30968822	     26.43921750	     -1.98727856	     -5.13231538	     37.20164150	      0.64929113	     14.69661370	     -4.59589622	     -7.30968822	    -15.72714088	     -0.34067654	      5.70145315	     17.96008945	    -15.64940588	      1.11889000	     43.88301143	     88.21550541	      4.21834952	     -9.43665785	      6.48114318	     17.70646702	     90.87449071
      0.13333330	      3.95555546	      0.59841127	     -7.33059662	      0.47465677	      0.91566591	      0.71464452	    -14.56869015	      1.73779800	      3.99538999	      6.68147594	      0.11661375	     19.54365523	     -3.92537346	     -7.34101714	     27.27081885	     -2.46648137	     -5.53769194	     33.52461112	      0.58511484	     14.77611813	     -4.29233501	     -7.34101714	    -15.94431433	     -0.30493016	      6.01627341	     18.39147022	    -16.02297357	      0.59684354	     45.43329904	     89.91674736	      4.50208332	     -9.38597152	      6.62115444	     17.65602271	     93.19822274
      0.15000000	      3.94156301	      0.58078506	     -7.58963307	      0.47515233	      0.91453020	      0.71393149	    -16.23466517	      1.53670455	      4.76092904	      5.66315655	      0.09884073	     19.20303246	     -3.63429625	     -7.33820339	     27.57267832	     -2.66450213	     -5.71451211	     29.90731835	      0.52198118	     14.88733275	     -3.84767407	     -7.33820339	    -16.25220094	     -0.39063217	      5.89867937	     18.80874133	    -16.18193496	      0.95431110	     46.49561324	     89.80482259	      4.54638141	     -9.37902702	      6.35739946	     17.80808451	     93.14444405
      0.16666670	      4.13021241	      0.60683541	     -7.91926691	      0.47600973	      0.91543142	      0.71229243	    -17.95483599	      1.15330278	      5.46515439	      4.96464868	      0.08664947	     18.99625797	     -2.82304212	     -7.33482492	     27.38538520	     -2.64810172	     -5.71533586	     26.90701606	      0.46961602	     14.88546756	     -3.40011914	     -7.33482492	    -16.57317930	     -0.52405007	      5.88270426	     18.95144502	    -16.23729192	      1.14315348	     46.97326952	     88.01970087	      4.55540634	     -9.29048524	      6.10939095	     18.20566103	     91.27411826
      0.18333330	      4.20684065	      0.71046752	     -8.10582825	      0.47613247	      0.91455457	      0.70947798	    -19.40026127	      0.69387628	      6.14698311	      4.61220229	      0.08049812	     18.42134230	     -2.77739459	     -7.33963060	     27.29237991	     -2.41390891	     -5.41127587	     24.95625633	      0.43556884	     14.78369026	     -3.11625588	     -7.33963060	    -16.59210381	     -0.67886295	      5.64184862	     18.82073091	    -16.24203394	      1.47392740	     47.23953446	     88.32924869	      4.64894120	     -9.25995203	      6.20829215	     18.33999379	     91.47161897
      0.20000000	      4.38003189	      0.87595193	     -8.26851908	      0.47513571	      0.91194079	      0.70680432	    -20.71243447	      0.12732307	      6.46321729	      4.65399851	      0.08122760	     17.92282561	     -2.63410547	     -7.34304056	     27.10928169	     -2.06855850	     -5.04491840	     24.12055802	      0.42098315	     14.44252420	     -3.26395258	     -7.34304056	    -16.66845562	     -0.92204984	      5.44728709	     18.57893151	    -16.21724783	      1.61293320	     47.31170589	     88.48331019	      4.91382487	     -9.25788178	      6.19755780	     18.64109083	     91.51373884
      0.21666670	      4.79981658	      1.04426752	     -8.41269603	      0.47498490	      0.90911700	      0.70506738	    -22.02463304	     -0.48084724	      6.58872192	      5.04228643	      0.08800450	     17.57997618	     -2.69639010	     -7.34791884	     26.64260033	     -1.66307702	     -4.61071829	     24.36741078	      0.42529155	     13.57756283	     -4.12748029	     -7.34791884	    -17.11375362	     -1.21955255	      5.21422686	     18.30259089	    -16.13518377	      1.65419634	     47.41190122	     88.66762582	      5.28493727	     -9.32014627	      6.10980945	     19.06286685	     91.51021379
